<?xml version="1.0" encoding="UTF-8"?>
<svg id="a" data-name="ICON" xmlns="http://www.w3.org/2000/svg" viewBox="0 0 48 48">
  <defs>
    <style>
      .b {
        fill: #fff;
      }
    </style>
  </defs>
  <path class="b" d="M23.61,27.56l.15-.12.03-.02c.12-.1.29-.09.41.01h0s.01.01.02.02l.17.13s.15.12.27.22c.11.09.17.23.15.37-.09.73-.56,3.19-.56,3.19,0,.07-.03.14-.08.19h0c-.09.09-.23.09-.32,0h0c-.05-.05-.08-.12-.08-.19,0,0-.47-2.48-.56-3.2-.02-.13.03-.27.13-.36l.28-.25Z"/>
  <path class="b" d="M24.43,15.62l19.05,12.47c1.24.92,2.37,1.99,3.27,3.24-.05.09-.15-.01-.21-.04-7.02-3.24-14.01-6.54-21.04-9.77-.39-.22-1.07-1.02-1.07-1.47v-4.43Z"/>
  <path class="b" d="M23.57,20.05c-.08.59-.61,1.2-1.11,1.49L1.25,31.36c.87-1.28,2.04-2.34,3.26-3.27l19.05-12.47v4.43Z"/>
  <path class="b" d="M23.57,25.82c-.07.43-.46.94-.85,1.26-.14.11-.3.19-.47.24-2.42.7-4.89,1.51-7.35,2.04-.05.01-.19.07-.19,0l1.8-4.15,7.07-3.26v3.87Z"/>
  <path class="b" d="M24.43,21.94l7.06,3.26,1.8,4.15-7.42-1.94c-.54-.18-1.45-1.08-1.45-1.65v-3.81Z"/>
  <path class="b" d="M46.32,31.98c.15.2-1.66.51-1.81.36l-10.11-2.66c-.12-.06-.18-.26-.24-.38-.57-1.15-.98-2.42-1.54-3.57l13.7,6.26Z"/>
  <path class="b" d="M15.38,25.72l-1.63,3.8-.15.16-10.11,2.66c-.62.07-1.26-.01-1.81-.33l13.7-6.29Z"/>
</svg>