<?xml version="1.0" encoding="UTF-8"?>
<svg xmlns="http://www.w3.org/2000/svg" viewBox="0 0 500 500">
  <defs>
    <style>
      .e {
        fill: none;
      }

      .f {
        fill: #fff;
      }
    </style>
  </defs>
  <g id="a" data-name="BG">
    <rect width="500" height="500"/>
  </g>
  <g id="b" data-name="ICON">
    <path class="f" d="M247.18,225.72l1.08-.89.21-.17c.87-.73,2.16-.69,2.98.1h0c.05.05.1.09.16.14l1.23.98c.09.07,1.12.91,2,1.62.8.65,1.21,1.67,1.09,2.69-.66,5.32-4.12,23.39-4.12,23.39-.04.52-.25,1-.61,1.38h0c-.64.68-1.69.68-2.33,0h0c-.35-.37-.57-.86-.6-1.37,0,0-3.43-18.22-4.08-23.45-.12-.98.25-1.95.99-2.61l2.03-1.8Z"/>
    <path class="f" d="M253.18,138.16l139.72,91.47c9.08,6.72,17.37,14.58,23.96,23.78-.34.69-1.1-.11-1.52-.3-51.48-23.78-102.76-47.99-154.29-71.66-2.88-1.62-7.87-7.47-7.87-10.77v-32.51Z"/>
    <path class="f" d="M246.82,170.67c-.59,4.36-4.45,8.8-8.17,10.93l-155.5,72.04c6.41-9.38,14.93-17.17,23.95-24.01l139.72-91.46v32.51Z"/>
    <path class="f" d="M246.82,212.95c-.49,3.14-3.37,6.9-6.23,9.21-1.02.82-2.22,1.4-3.48,1.76-17.74,5.1-35.83,11.08-53.91,14.97-.4.09-1.4.48-1.4-.03l13.2-30.45,51.82-23.88v28.41Z"/>
    <path class="f" d="M253.18,184.53l51.81,23.89,13.21,30.44-54.42-14.23c-3.99-1.32-10.6-7.92-10.6-12.13v-27.96Z"/>
    <path class="f" d="M413.67,258.19c1.1,1.44-12.17,3.76-13.29,2.61l-74.13-19.53c-.91-.47-1.32-1.88-1.77-2.78-4.17-8.44-7.17-17.72-11.29-26.22l100.47,45.92Z"/>
    <path class="f" d="M186.81,212.27l-11.93,27.85-1.12,1.15-74.13,19.53c-4.57.54-9.26-.07-13.29-2.39l100.47-46.14Z"/>
  </g>
  <g id="c" data-name="TEXT">
    <g>
      <rect class="e" y="300.7" width="500" height="67"/>
      <path class="f" d="M97.54,337.05v-34.3h7.99v34.3h-7.99ZM104.89,322.99v-6.71h16.76v6.71h-16.76ZM121.06,337.05v-34.3h7.94v34.3h-7.94Z"/>
      <path class="f" d="M132.62,337.05l15.24-34.3h7.84l15.39,34.3h-8.33l-12.59-30.28h3.19l-12.59,30.28h-8.13ZM140.31,329.7l2.01-6.03h17.74l2.06,6.03h-21.81Z"/>
      <path class="f" d="M190.74,337.64c-2.71,0-5.21-.43-7.5-1.3-2.29-.86-4.26-2.1-5.93-3.7-1.67-1.6-2.96-3.48-3.9-5.63-.93-2.16-1.4-4.52-1.4-7.11s.47-4.95,1.4-7.1c.93-2.16,2.25-4.03,3.94-5.63,1.7-1.6,3.69-2.83,5.98-3.7,2.29-.87,4.8-1.3,7.55-1.3,3.04,0,5.77.51,8.21,1.52,2.43,1.01,4.48,2.48,6.15,4.41l-5.05,4.7c-1.27-1.34-2.65-2.33-4.12-2.96-1.47-.64-3.09-.96-4.85-.96-1.63,0-3.14.27-4.51.81s-2.56,1.3-3.55,2.28c-1,.98-1.76,2.14-2.3,3.48-.54,1.34-.81,2.83-.81,4.46s.27,3.03.81,4.39c.54,1.36,1.31,2.52,2.3,3.5,1,.98,2.17,1.75,3.53,2.3,1.36.56,2.85.83,4.48.83s3.09-.26,4.58-.78c1.49-.52,2.93-1.39,4.34-2.6l4.51,5.73c-1.9,1.44-4.07,2.52-6.52,3.26-2.45.74-4.9,1.1-7.35,1.1ZM204.6,333.28l-7.25-1.08v-12.84h7.25v13.92Z"/>
      <path class="f" d="M207.44,337.05l15.24-34.3h7.84l15.39,34.3h-8.33l-12.59-30.28h3.19l-12.59,30.28h-8.13ZM215.14,329.7l2.01-6.03h17.74l2.06,6.03h-21.81Z"/>
      <path class="f" d="M249.49,337.05v-34.3h14.65c4.77,0,8.48,1.1,11.12,3.31s3.97,5.24,3.97,9.09c0,2.58-.61,4.79-1.81,6.64-1.21,1.85-2.92,3.25-5.15,4.21-2.22.96-4.87,1.45-7.94,1.45h-10.49l3.63-3.43v13.03h-7.99ZM257.47,324.9l-3.63-3.77h10.04c2.42,0,4.25-.52,5.49-1.57,1.24-1.04,1.86-2.51,1.86-4.41s-.62-3.36-1.86-4.38c-1.24-1.03-3.07-1.54-5.49-1.54h-10.04l3.63-3.77v19.45ZM271.34,337.05l-8.62-12.45h8.53l8.62,12.45h-8.53Z"/>
      <path class="f" d="M300.89,337.05v-34.3h12.84c2.91,0,5.41.46,7.5,1.4,2.09.93,3.7,2.27,4.83,4.02,1.13,1.75,1.69,3.86,1.69,6.35s-.56,4.5-1.69,6.25c-1.13,1.75-2.74,3.1-4.83,4.04-2.09.95-4.59,1.42-7.5,1.42h-10.83l1.62-1.71v12.54h-3.63ZM304.51,324.8l-1.62-1.76h10.73c3.43,0,6.03-.74,7.82-2.23,1.78-1.49,2.67-3.58,2.67-6.3s-.89-4.87-2.67-6.37c-1.78-1.5-4.39-2.25-7.82-2.25h-10.73l1.62-1.71v20.63Z"/>
      <path class="f" d="M335.58,337.05v-34.3h12.84c4.34,0,7.77,1.04,10.27,3.11,2.5,2.08,3.75,4.96,3.75,8.65,0,2.42-.56,4.5-1.69,6.25-1.13,1.75-2.74,3.09-4.83,4.02-2.09.93-4.59,1.4-7.5,1.4h-10.83l1.62-1.67v12.54h-3.63ZM339.21,324.8l-1.62-1.71h10.73c3.43,0,6.03-.75,7.82-2.25,1.78-1.5,2.67-3.61,2.67-6.32s-.89-4.87-2.67-6.37c-1.78-1.5-4.39-2.25-7.82-2.25h-10.73l1.62-1.71v20.63ZM359,337.05l-8.82-12.45h3.92l8.87,12.45h-3.97Z"/>
      <path class="f" d="M386,337.35c-2.58,0-4.97-.43-7.18-1.3-2.21-.87-4.12-2.09-5.73-3.67-1.62-1.58-2.88-3.43-3.77-5.54-.9-2.11-1.35-4.42-1.35-6.93s.45-4.83,1.35-6.93c.9-2.11,2.16-3.95,3.77-5.54,1.62-1.58,3.52-2.81,5.71-3.68,2.19-.87,4.59-1.3,7.2-1.3s4.96.43,7.15,1.3c2.19.87,4.09,2.08,5.71,3.65,1.62,1.57,2.87,3.41,3.77,5.54.9,2.12,1.35,4.44,1.35,6.96s-.45,4.83-1.35,6.96c-.9,2.12-2.16,3.97-3.77,5.54-1.62,1.57-3.52,2.79-5.71,3.65-2.19.87-4.57,1.3-7.15,1.3ZM386,334.11c2.06,0,3.96-.35,5.71-1.05,1.75-.7,3.27-1.7,4.56-2.99s2.29-2.79,3.01-4.51c.72-1.71,1.08-3.6,1.08-5.66s-.36-3.94-1.08-5.66c-.72-1.71-1.72-3.22-3.01-4.51-1.29-1.29-2.81-2.29-4.56-2.99-1.75-.7-3.65-1.05-5.71-1.05s-3.97.35-5.73,1.05c-1.76.7-3.3,1.7-4.61,2.99-1.31,1.29-2.32,2.79-3.04,4.51-.72,1.71-1.08,3.6-1.08,5.66s.36,3.9,1.08,5.64c.72,1.73,1.73,3.24,3.04,4.53,1.31,1.29,2.84,2.29,4.61,2.99,1.76.7,3.68,1.05,5.73,1.05Z"/>
    </g>
    <g>
      <rect class="e" y="351.75" width="500" height="67"/>
      <path class="f" d="M170.85,366.71c-1.04,0-2.04-.17-2.99-.51-.95-.34-1.69-.78-2.21-1.31l.58-1.14c.49.48,1.16.88,1.99,1.21.83.33,1.71.49,2.63.49s1.6-.11,2.15-.33c.55-.22.96-.52,1.22-.89.26-.37.39-.79.39-1.24,0-.55-.16-.99-.47-1.32-.31-.33-.72-.6-1.23-.79-.51-.19-1.07-.36-1.68-.51s-1.23-.3-1.84-.47c-.61-.17-1.18-.39-1.69-.67-.51-.28-.93-.65-1.24-1.11-.31-.46-.47-1.06-.47-1.81,0-.69.18-1.33.55-1.91.37-.58.93-1.05,1.69-1.4.76-.35,1.73-.53,2.92-.53.79,0,1.57.11,2.34.33s1.44.52,2,.91l-.5,1.18c-.6-.4-1.24-.69-1.91-.88-.67-.19-1.32-.28-1.95-.28-.84,0-1.53.11-2.08.34s-.95.53-1.21.91c-.26.38-.39.81-.39,1.29,0,.55.16.99.47,1.32.31.33.73.59,1.24.78.51.19,1.08.35,1.69.5.61.15,1.22.31,1.83.48.61.17,1.17.4,1.68.67.51.27.93.64,1.24,1.09.31.45.47,1.05.47,1.78,0,.68-.19,1.31-.56,1.89-.37.58-.94,1.05-1.71,1.4-.77.35-1.75.53-2.95.53Z"/>
      <path class="f" d="M185.81,366.59v-12.72h-4.92v-1.28h11.32v1.28h-4.92v12.72h-1.48Z"/>
      <path class="f" d="M203.93,366.71c-1.79,0-3.19-.51-4.22-1.54-1.03-1.03-1.54-2.55-1.54-4.56v-8.02h1.48v7.96c0,1.65.37,2.87,1.12,3.66s1.8,1.18,3.16,1.18,2.43-.39,3.18-1.18c.75-.79,1.12-2.01,1.12-3.66v-7.96h1.44v8.02c0,2.01-.51,3.53-1.53,4.56s-2.42,1.54-4.21,1.54Z"/>
      <path class="f" d="M218.13,366.59v-14h5.7c1.49,0,2.8.3,3.93.89,1.13.59,2,1.42,2.63,2.47.63,1.05.94,2.27.94,3.64s-.31,2.59-.94,3.64c-.63,1.05-1.5,1.88-2.63,2.47-1.13.59-2.44.89-3.93.89h-5.7ZM219.61,365.31h4.14c1.24,0,2.32-.24,3.23-.73s1.62-1.16,2.13-2.02c.51-.86.76-1.85.76-2.97s-.25-2.13-.76-2.98c-.51-.85-1.22-1.52-2.13-2.01-.91-.49-1.99-.73-3.23-.73h-4.14v11.44Z"/>
      <path class="f" d="M241.39,366.59v-5.2l.34.92-5.94-9.72h1.58l5.22,8.54h-.84l5.22-8.54h1.48l-5.94,9.72.34-.92v5.2h-1.46Z"/>
      <path class="f" d="M270.13,366.71c-1.07,0-2.05-.18-2.95-.53-.9-.35-1.68-.85-2.34-1.49-.66-.64-1.17-1.39-1.54-2.26-.37-.87-.55-1.81-.55-2.84s.18-1.97.55-2.84.88-1.62,1.55-2.26c.67-.64,1.45-1.14,2.35-1.49.9-.35,1.88-.53,2.95-.53s2.04.17,2.93.5c.89.33,1.64.84,2.27,1.52l-.92.94c-.59-.59-1.23-1.01-1.94-1.26s-1.47-.38-2.28-.38c-.87,0-1.66.14-2.39.43-.73.29-1.36.69-1.9,1.22-.54.53-.96,1.14-1.26,1.84-.3.7-.45,1.47-.45,2.31s.15,1.59.45,2.3c.3.71.72,1.32,1.26,1.85.54.53,1.17.93,1.9,1.22s1.52.43,2.37.43c.8,0,1.55-.12,2.27-.36.71-.24,1.37-.65,1.97-1.22l.84,1.12c-.67.59-1.45,1.03-2.34,1.33-.89.3-1.83.45-2.8.45ZM275.27,364.93l-1.42-.18v-5.16h1.42v5.34Z"/>
      <path class="f" d="M289.09,366.71c-1.79,0-3.19-.51-4.22-1.54-1.03-1.03-1.54-2.55-1.54-4.56v-8.02h1.48v7.96c0,1.65.37,2.87,1.12,3.66s1.8,1.18,3.16,1.18,2.43-.39,3.18-1.18c.75-.79,1.12-2.01,1.12-3.66v-7.96h1.44v8.02c0,2.01-.51,3.53-1.53,4.56-1.02,1.03-2.42,1.54-4.21,1.54Z"/>
      <path class="f" d="M303.29,366.59v-14h1.48v14h-1.48Z"/>
      <path class="f" d="M313.33,366.59v-14h5.7c1.49,0,2.8.3,3.93.89,1.13.59,2,1.42,2.63,2.47.63,1.05.94,2.27.94,3.64s-.31,2.59-.94,3.64c-.63,1.05-1.5,1.88-2.63,2.47-1.13.59-2.44.89-3.93.89h-5.7ZM314.81,365.31h4.14c1.24,0,2.32-.24,3.23-.73s1.62-1.16,2.13-2.02c.51-.86.76-1.85.76-2.97s-.25-2.13-.76-2.98c-.51-.85-1.22-1.52-2.13-2.01-.91-.49-1.99-.73-3.23-.73h-4.14v11.44Z"/>
      <path class="f" d="M333.85,366.59v-14h9.6v1.28h-8.12v11.44h8.42v1.28h-9.9ZM335.17,360.11v-1.26h7.4v1.26h-7.4Z"/>
    </g>
  </g>
  <g id="d" data-name="HEADER">
    <rect class="e" x="475.32" y="10.95" width="500" height="21.1"/>
  </g>
</svg>