<?xml version="1.0" encoding="UTF-8"?>
<svg id="d" data-name="HEADER" xmlns="http://www.w3.org/2000/svg" viewBox="0 0 270 43">
  <defs>
    <style>
      .e {
        fill: none;
      }

      .f {
        fill: #fff;
      }
    </style>
  </defs>
  <g>
    <path class="f" d="M41.47,26.45l.21-.17.04-.03c.17-.14.41-.13.57.02h0s.02.02.03.03l.23.19s.21.17.38.31c.15.12.23.32.21.51-.13,1.01-.78,4.44-.78,4.44,0,.1-.05.19-.12.26h0c-.12.13-.32.13-.44,0h0c-.07-.07-.11-.16-.11-.26,0,0-.65-3.46-.77-4.45-.02-.19.05-.37.19-.5l.38-.34Z"/>
    <path class="f" d="M42.61,9.83l26.52,17.36c1.72,1.28,3.3,2.77,4.55,4.51-.07.13-.21-.02-.29-.06-9.77-4.51-19.51-9.11-29.29-13.61-.55-.31-1.49-1.42-1.49-2.05v-6.17Z"/>
    <path class="f" d="M41.4,16c-.11.83-.84,1.67-1.55,2.07l-29.52,13.68c1.22-1.78,2.83-3.26,4.55-4.56l26.53-17.36v6.17Z"/>
    <path class="f" d="M41.4,24.03c-.09.6-.64,1.31-1.18,1.75-.19.16-.42.27-.66.33-3.37.97-6.8,2.1-10.23,2.84-.08.02-.26.09-.27,0l2.51-5.78,9.84-4.53v5.39Z"/>
    <path class="f" d="M42.61,18.63l9.84,4.53,2.51,5.78-10.33-2.7c-.76-.25-2.01-1.5-2.01-2.3v-5.31Z"/>
    <path class="f" d="M73.07,32.62c.21.27-2.31.71-2.52.49l-14.07-3.71c-.17-.09-.25-.36-.34-.53-.79-1.6-1.36-3.36-2.14-4.98l19.07,8.72Z"/>
    <path class="f" d="M30.01,23.9l-2.26,5.29-.21.22-14.07,3.71c-.87.1-1.76-.01-2.52-.45l19.07-8.76Z"/>
  </g>
  <g>
    <rect class="e" x="-81.68" y="10.95" width="500" height="21.1"/>
    <path class="f" d="M84.31,30.98V12.08h4.4v18.9h-4.4ZM88.36,23.23v-3.7h9.23v3.7h-9.23ZM97.27,30.98V12.08h4.37v18.9h-4.37Z"/>
    <path class="f" d="M103.64,30.98l8.4-18.9h4.32l8.48,18.9h-4.59l-6.94-16.69h1.76l-6.94,16.69h-4.48ZM107.88,26.93l1.11-3.32h9.77l1.13,3.32h-12.02Z"/>
    <path class="f" d="M135.67,31.31c-1.5,0-2.87-.24-4.13-.72s-2.35-1.16-3.27-2.04-1.63-1.92-2.15-3.11c-.51-1.19-.77-2.49-.77-3.92s.26-2.73.77-3.92c.51-1.19,1.24-2.22,2.17-3.1.94-.88,2.03-1.56,3.29-2.04,1.26-.48,2.65-.71,4.16-.71,1.67,0,3.18.28,4.52.84,1.34.56,2.47,1.37,3.39,2.43l-2.78,2.59c-.7-.74-1.46-1.28-2.27-1.63-.81-.35-1.7-.53-2.67-.53-.9,0-1.73.15-2.48.45-.76.3-1.41.71-1.96,1.25-.55.54-.97,1.18-1.27,1.92-.3.74-.45,1.56-.45,2.46s.15,1.67.45,2.42c.3.75.72,1.39,1.27,1.93.55.54,1.2.96,1.94,1.27.75.31,1.57.46,2.47.46s1.71-.14,2.52-.43c.82-.29,1.62-.77,2.39-1.43l2.48,3.16c-1.04.79-2.24,1.39-3.59,1.8-1.35.4-2.7.61-4.05.61ZM143.31,28.9l-4-.59v-7.07h4v7.67Z"/>
    <path class="f" d="M144.87,30.98l8.4-18.9h4.32l8.48,18.9h-4.59l-6.94-16.69h1.76l-6.94,16.69h-4.48ZM149.11,26.93l1.11-3.32h9.77l1.13,3.32h-12.02Z"/>
    <path class="f" d="M168.04,30.98V12.08h8.07c2.63,0,4.67.61,6.13,1.82,1.46,1.21,2.19,2.88,2.19,5.01,0,1.42-.33,2.64-1,3.66s-1.61,1.79-2.83,2.32c-1.22.53-2.68.8-4.37.8h-5.78l2-1.89v7.18h-4.4ZM172.44,24.29l-2-2.08h5.54c1.33,0,2.34-.29,3.02-.86.68-.58,1.03-1.39,1.03-2.43s-.34-1.85-1.03-2.42c-.68-.57-1.69-.85-3.02-.85h-5.54l2-2.08v10.72ZM180.08,30.98l-4.75-6.86h4.7l4.75,6.86h-4.7Z"/>
    <path class="f" d="M196.36,30.98V12.08h7.07c1.6,0,2.98.26,4.13.77,1.15.51,2.04,1.25,2.66,2.21s.93,2.13.93,3.5-.31,2.48-.93,3.44-1.51,1.71-2.66,2.23c-1.15.52-2.53.78-4.13.78h-5.97l.89-.95v6.91h-2ZM198.36,24.23l-.89-.97h5.91c1.89,0,3.33-.41,4.31-1.23s1.47-1.98,1.47-3.47-.49-2.68-1.47-3.51-2.42-1.24-4.31-1.24h-5.91l.89-.95v11.37Z"/>
    <path class="f" d="M215.48,30.98V12.08h7.07c2.39,0,4.28.57,5.66,1.71,1.38,1.14,2.07,2.73,2.07,4.77,0,1.33-.31,2.48-.93,3.44s-1.51,1.7-2.66,2.21c-1.15.51-2.53.77-4.13.77h-5.97l.89-.92v6.91h-2ZM217.47,24.23l-.89-.95h5.91c1.89,0,3.33-.41,4.31-1.24s1.47-1.99,1.47-3.48-.49-2.68-1.47-3.51-2.42-1.24-4.31-1.24h-5.91l.89-.95v11.37ZM228.38,30.98l-4.86-6.86h2.16l4.89,6.86h-2.19Z"/>
    <path class="f" d="M243.26,31.14c-1.42,0-2.74-.24-3.96-.72-1.21-.48-2.27-1.15-3.16-2.02s-1.58-1.89-2.08-3.05c-.5-1.16-.74-2.43-.74-3.82s.25-2.66.74-3.82,1.19-2.18,2.08-3.05,1.94-1.55,3.15-2.03c1.21-.48,2.53-.71,3.97-.71s2.74.24,3.94.71c1.21.48,2.25,1.15,3.15,2.01.89.86,1.58,1.88,2.08,3.05.49,1.17.74,2.45.74,3.83s-.25,2.66-.74,3.83c-.5,1.17-1.19,2.19-2.08,3.05-.89.86-1.94,1.54-3.15,2.01-1.21.48-2.52.72-3.94.72ZM243.26,29.36c1.13,0,2.18-.19,3.15-.58s1.8-.94,2.51-1.65c.71-.71,1.26-1.54,1.66-2.48.4-.95.59-1.99.59-3.12s-.2-2.17-.59-3.12c-.4-.95-.95-1.77-1.66-2.48-.71-.71-1.55-1.26-2.51-1.65s-2.01-.58-3.15-.58-2.19.19-3.16.58c-.97.39-1.82.94-2.54,1.65-.72.71-1.28,1.54-1.67,2.48s-.59,1.98-.59,3.12.2,2.15.59,3.11.95,1.79,1.67,2.5c.72.71,1.57,1.26,2.54,1.65.97.39,2.03.58,3.16.58Z"/>
  </g>
</svg>